<svg xmlns="http://www.w3.org/2000/svg" xmlns:xlink="http://www.w3.org/1999/xlink" width="500" zoomAndPan="magnify" viewBox="0 0 375 374.999991" height="500" preserveAspectRatio="xMidYMid meet" version="1.0"><defs><g/><clipPath id="53bc6b67a3"><path d="M 183 136.398438 L 206 136.398438 L 206 184 L 183 184 Z M 183 136.398438 " clip-rule="nonzero"/></clipPath><clipPath id="f2c1c9f914"><path d="M 166 149 L 187 149 L 187 187.398438 L 166 187.398438 Z M 166 149 " clip-rule="nonzero"/></clipPath><clipPath id="cccd92af9d"><path d="M 149.949219 160 L 176 160 L 176 187.398438 L 149.949219 187.398438 Z M 149.949219 160 " clip-rule="nonzero"/></clipPath><clipPath id="e322e63394"><path d="M 171 136.398438 L 215.949219 136.398438 L 215.949219 187.398438 L 171 187.398438 Z M 171 136.398438 " clip-rule="nonzero"/></clipPath></defs><rect x="-37.5" width="450" fill="#ffffff" y="-37.499999" height="449.999989" fill-opacity="1"/><rect x="-37.5" width="450" fill="#ffffff" y="-37.499999" height="449.999989" fill-opacity="1"/><g fill="#b2812e" fill-opacity="1"><g transform="translate(93.790346, 228.768326)"><g><path d="M 7.585938 -19.980469 C 6.023438 -19.980469 1.53125 -19.980469 1.53125 -19.980469 L 1.53125 0.03125 L 3.792969 0.03125 L 3.792969 -9.273438 L 6.085938 -9.273438 C 7.042969 -9.273438 13.988281 -9.242188 13.988281 -14.976562 C 13.988281 -19.375 9.210938 -19.980469 7.585938 -19.980469 Z M 5.546875 -9.785156 L 3.792969 -9.785156 L 3.792969 -19.472656 L 6.375 -19.472656 C 9.625 -19.472656 11.566406 -18.132812 11.566406 -14.628906 C 11.566406 -11.058594 9.273438 -9.785156 5.546875 -9.785156 Z M 5.546875 -9.785156 "/></g></g></g><g fill="#b2812e" fill-opacity="1"><g transform="translate(114.152289, 228.768326)"><g><path d="M 15.550781 0.03125 L 8.0625 -9.402344 C 10.421875 -9.71875 13.988281 -10.867188 13.988281 -14.976562 C 13.988281 -19.375 9.210938 -19.980469 7.585938 -19.980469 C 6.023438 -19.980469 1.53125 -19.980469 1.53125 -19.980469 L 1.53125 0.03125 L 3.792969 0.03125 L 3.792969 -9.273438 L 5.257812 -9.273438 L 12.652344 0.03125 Z M 3.792969 -19.472656 L 6.375 -19.472656 C 9.625 -19.472656 11.566406 -18.132812 11.566406 -14.628906 C 11.566406 -11.058594 9.273438 -9.785156 5.546875 -9.785156 L 3.792969 -9.785156 Z M 3.792969 -19.472656 "/></g></g></g><g fill="#b2812e" fill-opacity="1"><g transform="translate(135.820631, 228.768326)"><g><path d="M 12.238281 -20.363281 C 6.5 -20.363281 1.273438 -17.304688 1.273438 -9.910156 C 1.273438 -1.402344 8.222656 0.605469 12.238281 0.605469 C 16.21875 0.605469 23.199219 -1.402344 23.199219 -9.910156 C 23.199219 -17.304688 17.941406 -20.363281 12.238281 -20.363281 Z M 12.238281 0.0625 C 8.636719 0.0625 3.601562 -1.53125 3.601562 -9.910156 C 3.601562 -18.164062 9.144531 -19.851562 12.238281 -19.851562 C 15.328125 -19.851562 20.875 -18.164062 20.875 -9.910156 C 20.875 -1.53125 15.804688 0.0625 12.238281 0.0625 Z M 12.238281 0.0625 "/></g></g></g><g fill="#b2812e" fill-opacity="1"><g transform="translate(165.518499, 228.768326)"><g><path d="M 7.585938 -19.980469 C 6.023438 -19.980469 1.53125 -19.980469 1.53125 -19.980469 L 1.53125 0.03125 L 3.792969 0.03125 L 3.792969 -9.273438 L 6.085938 -9.273438 C 7.042969 -9.273438 13.988281 -9.242188 13.988281 -14.976562 C 13.988281 -19.375 9.210938 -19.980469 7.585938 -19.980469 Z M 5.546875 -9.785156 L 3.792969 -9.785156 L 3.792969 -19.472656 L 6.375 -19.472656 C 9.625 -19.472656 11.566406 -18.132812 11.566406 -14.628906 C 11.566406 -11.058594 9.273438 -9.785156 5.546875 -9.785156 Z M 5.546875 -9.785156 "/></g></g></g><g fill="#b2812e" fill-opacity="1"><g transform="translate(185.880443, 228.768326)"><g><path d="M 18.070312 -1.785156 C 18.070312 -1.785156 15.933594 0.0625 12.238281 0.0625 C 8.667969 0.0625 3.601562 -1.53125 3.601562 -9.910156 C 3.601562 -18.164062 9.144531 -19.851562 12.238281 -19.851562 C 15.996094 -19.851562 18.070312 -18.355469 18.070312 -18.355469 L 18.070312 -19.058594 C 18.070312 -19.058594 15.871094 -20.363281 12.238281 -20.363281 C 6.5 -20.363281 1.273438 -17.304688 1.273438 -9.910156 C 1.273438 -1.402344 7.933594 0.605469 11.949219 0.605469 C 15.933594 0.605469 18.070312 -1.082031 18.070312 -1.082031 Z M 18.070312 -1.785156 "/></g></g></g><g fill="#b2812e" fill-opacity="1"><g transform="translate(210.35275, 228.768326)"><g><path d="M 12.238281 -20.363281 C 6.5 -20.363281 1.273438 -17.304688 1.273438 -9.910156 C 1.273438 -1.402344 8.222656 0.605469 12.238281 0.605469 C 16.21875 0.605469 23.199219 -1.402344 23.199219 -9.910156 C 23.199219 -17.304688 17.941406 -20.363281 12.238281 -20.363281 Z M 12.238281 0.0625 C 8.636719 0.0625 3.601562 -1.53125 3.601562 -9.910156 C 3.601562 -18.164062 9.144531 -19.851562 12.238281 -19.851562 C 15.328125 -19.851562 20.875 -18.164062 20.875 -9.910156 C 20.875 -1.53125 15.804688 0.0625 12.238281 0.0625 Z M 12.238281 0.0625 "/></g></g></g><g fill="#b2812e" fill-opacity="1"><g transform="translate(240.050625, 228.768326)"><g><path d="M 15.550781 0.03125 L 8.0625 -9.402344 C 10.421875 -9.71875 13.988281 -10.867188 13.988281 -14.976562 C 13.988281 -19.375 9.210938 -19.980469 7.585938 -19.980469 C 6.023438 -19.980469 1.53125 -19.980469 1.53125 -19.980469 L 1.53125 0.03125 L 3.792969 0.03125 L 3.792969 -9.273438 L 5.257812 -9.273438 L 12.652344 0.03125 Z M 3.792969 -19.472656 L 6.375 -19.472656 C 9.625 -19.472656 11.566406 -18.132812 11.566406 -14.628906 C 11.566406 -11.058594 9.273438 -9.785156 5.546875 -9.785156 L 3.792969 -9.785156 Z M 3.792969 -19.472656 "/></g></g></g><g fill="#b2812e" fill-opacity="1"><g transform="translate(261.71897, 228.768326)"><g><path d="M 17.78125 -19.980469 L 17.273438 -19.980469 L 17.273438 -3.027344 L 1.59375 -20.363281 L 1.53125 -20.363281 L 1.53125 0.03125 L 2.039062 0.03125 L 2.039062 -16.730469 L 17.6875 0.605469 L 17.78125 0.605469 Z M 17.78125 -19.980469 "/></g></g></g><g fill="#b2812e" fill-opacity="1"><g transform="translate(98.611082, 248.45364)"><g><path d="M 2.683594 -7.066406 C 2.128906 -7.066406 0.542969 -7.066406 0.542969 -7.066406 L 0.542969 0.0117188 L 1.339844 0.0117188 L 1.339844 -3.28125 L 2.152344 -3.28125 C 2.492188 -3.28125 4.949219 -3.269531 4.949219 -5.296875 C 4.949219 -6.855469 3.257812 -7.066406 2.683594 -7.066406 Z M 1.960938 -3.460938 L 1.339844 -3.460938 L 1.339844 -6.886719 L 2.253906 -6.886719 C 3.402344 -6.886719 4.09375 -6.414062 4.09375 -5.175781 C 4.09375 -3.910156 3.28125 -3.460938 1.960938 -3.460938 Z M 1.960938 -3.460938 "/></g></g></g><g fill="#b2812e" fill-opacity="1"><g transform="translate(109.665596, 248.45364)"><g><path d="M 5.5 0.0117188 L 2.851562 -3.324219 C 3.6875 -3.4375 4.949219 -3.84375 4.949219 -5.296875 C 4.949219 -6.855469 3.257812 -7.066406 2.683594 -7.066406 C 2.128906 -7.066406 0.542969 -7.066406 0.542969 -7.066406 L 0.542969 0.0117188 L 1.339844 0.0117188 L 1.339844 -3.28125 L 1.859375 -3.28125 L 4.476562 0.0117188 Z M 1.339844 -6.886719 L 2.253906 -6.886719 C 3.402344 -6.886719 4.09375 -6.414062 4.09375 -5.175781 C 4.09375 -3.910156 3.28125 -3.460938 1.960938 -3.460938 L 1.339844 -3.460938 Z M 1.339844 -6.886719 "/></g></g></g><g fill="#b2812e" fill-opacity="1"><g transform="translate(121.181845, 248.45364)"><g><path d="M 4.328125 -7.203125 C 2.300781 -7.203125 0.449219 -6.121094 0.449219 -3.503906 C 0.449219 -0.496094 2.910156 0.214844 4.328125 0.214844 C 5.738281 0.214844 8.207031 -0.496094 8.207031 -3.503906 C 8.207031 -6.121094 6.347656 -7.203125 4.328125 -7.203125 Z M 4.328125 0.0234375 C 3.054688 0.0234375 1.273438 -0.542969 1.273438 -3.503906 C 1.273438 -6.425781 3.234375 -7.023438 4.328125 -7.023438 C 5.421875 -7.023438 7.382812 -6.425781 7.382812 -3.503906 C 7.382812 -0.542969 5.589844 0.0234375 4.328125 0.0234375 Z M 4.328125 0.0234375 "/></g></g></g><g fill="#b2812e" fill-opacity="1"><g transform="translate(135.536034, 248.45364)"><g><path d="M 2.683594 -7.066406 C 2.128906 -7.066406 0.542969 -7.066406 0.542969 -7.066406 L 0.542969 0.0117188 L 1.339844 0.0117188 L 1.339844 -3.28125 L 2.152344 -3.28125 C 2.492188 -3.28125 4.949219 -3.269531 4.949219 -5.296875 C 4.949219 -6.855469 3.257812 -7.066406 2.683594 -7.066406 Z M 1.960938 -3.460938 L 1.339844 -3.460938 L 1.339844 -6.886719 L 2.253906 -6.886719 C 3.402344 -6.886719 4.09375 -6.414062 4.09375 -5.175781 C 4.09375 -3.910156 3.28125 -3.460938 1.960938 -3.460938 Z M 1.960938 -3.460938 "/></g></g></g><g fill="#b2812e" fill-opacity="1"><g transform="translate(146.590548, 248.45364)"><g><path d="M 4.125 -6.886719 L 4.125 -7.066406 L 0.542969 -7.066406 L 0.542969 0.0117188 L 4.125 0.0117188 L 4.125 -0.167969 L 1.339844 -0.167969 L 1.339844 -3.597656 L 3.820312 -3.597656 L 3.820312 -3.777344 L 1.339844 -3.777344 L 1.339844 -6.886719 Z M 4.125 -6.886719 "/></g></g></g><g fill="#b2812e" fill-opacity="1"><g transform="translate(156.834223, 248.45364)"><g><path d="M 5.5 0.0117188 L 2.851562 -3.324219 C 3.6875 -3.4375 4.949219 -3.84375 4.949219 -5.296875 C 4.949219 -6.855469 3.257812 -7.066406 2.683594 -7.066406 C 2.128906 -7.066406 0.542969 -7.066406 0.542969 -7.066406 L 0.542969 0.0117188 L 1.339844 0.0117188 L 1.339844 -3.28125 L 1.859375 -3.28125 L 4.476562 0.0117188 Z M 1.339844 -6.886719 L 2.253906 -6.886719 C 3.402344 -6.886719 4.09375 -6.414062 4.09375 -5.175781 C 4.09375 -3.910156 3.28125 -3.460938 1.960938 -3.460938 L 1.339844 -3.460938 Z M 1.339844 -6.886719 "/></g></g></g><g fill="#b2812e" fill-opacity="1"><g transform="translate(168.350469, 248.45364)"><g><path d="M 5.535156 -7.066406 L 0.371094 -7.066406 L 0.371094 -6.886719 L 2.546875 -6.886719 L 2.546875 0.0117188 L 3.359375 0.0117188 L 3.359375 -6.886719 L 5.535156 -6.886719 Z M 5.535156 -7.066406 "/></g></g></g><g fill="#b2812e" fill-opacity="1"><g transform="translate(179.900498, 248.45364)"><g><path d="M 5.488281 -7.066406 L 3.347656 -3.472656 L 1.285156 -7.066406 L 0.359375 -7.066406 L 2.636719 -3.078125 L 2.636719 0.0117188 L 3.449219 0.0117188 L 3.449219 -3.292969 L 5.714844 -7.066406 Z M 5.488281 -7.066406 "/></g></g></g><g fill="#b2812e" fill-opacity="1"><g transform="translate(191.619453, 248.45364)"><g/></g></g><g fill="#b2812e" fill-opacity="1"><g transform="translate(200.072517, 248.45364)"><g><path d="M 6.390625 -0.632812 C 6.390625 -0.632812 5.636719 0.0234375 4.328125 0.0234375 C 3.066406 0.0234375 1.273438 -0.542969 1.273438 -3.503906 C 1.273438 -6.425781 3.234375 -7.023438 4.328125 -7.023438 C 5.660156 -7.023438 6.390625 -6.492188 6.390625 -6.492188 L 6.390625 -6.742188 C 6.390625 -6.742188 5.613281 -7.203125 4.328125 -7.203125 C 2.300781 -7.203125 0.449219 -6.121094 0.449219 -3.503906 C 0.449219 -0.496094 2.808594 0.214844 4.226562 0.214844 C 5.636719 0.214844 6.390625 -0.382812 6.390625 -0.382812 Z M 6.390625 -0.632812 "/></g></g></g><g fill="#b2812e" fill-opacity="1"><g transform="translate(212.579787, 248.45364)"><g><path d="M 4.328125 -7.203125 C 2.300781 -7.203125 0.449219 -6.121094 0.449219 -3.503906 C 0.449219 -0.496094 2.910156 0.214844 4.328125 0.214844 C 5.738281 0.214844 8.207031 -0.496094 8.207031 -3.503906 C 8.207031 -6.121094 6.347656 -7.203125 4.328125 -7.203125 Z M 4.328125 0.0234375 C 3.054688 0.0234375 1.273438 -0.542969 1.273438 -3.503906 C 1.273438 -6.425781 3.234375 -7.023438 4.328125 -7.023438 C 5.421875 -7.023438 7.382812 -6.425781 7.382812 -3.503906 C 7.382812 -0.542969 5.589844 0.0234375 4.328125 0.0234375 Z M 4.328125 0.0234375 "/></g></g></g><g fill="#b2812e" fill-opacity="1"><g transform="translate(226.933973, 248.45364)"><g><path d="M 5.5 0.0117188 L 2.851562 -3.324219 C 3.6875 -3.4375 4.949219 -3.84375 4.949219 -5.296875 C 4.949219 -6.855469 3.257812 -7.066406 2.683594 -7.066406 C 2.128906 -7.066406 0.542969 -7.066406 0.542969 -7.066406 L 0.542969 0.0117188 L 1.339844 0.0117188 L 1.339844 -3.28125 L 1.859375 -3.28125 L 4.476562 0.0117188 Z M 1.339844 -6.886719 L 2.253906 -6.886719 C 3.402344 -6.886719 4.09375 -6.414062 4.09375 -5.175781 C 4.09375 -3.910156 3.28125 -3.460938 1.960938 -3.460938 L 1.339844 -3.460938 Z M 1.339844 -6.886719 "/></g></g></g><g fill="#b2812e" fill-opacity="1"><g transform="translate(238.450219, 248.45364)"><g><path d="M 6.289062 -7.066406 L 6.109375 -7.066406 L 6.109375 -1.070312 L 0.5625 -7.203125 L 0.542969 -7.203125 L 0.542969 0.0117188 L 0.722656 0.0117188 L 0.722656 -5.917969 L 6.257812 0.214844 L 6.289062 0.214844 Z M 6.289062 -7.066406 "/></g></g></g><g fill="#b2812e" fill-opacity="1"><g transform="translate(250.96875, 248.45364)"><g><path d="M 4.125 -6.886719 L 4.125 -7.066406 L 0.542969 -7.066406 L 0.542969 0.0117188 L 4.125 0.0117188 L 4.125 -0.167969 L 1.339844 -0.167969 L 1.339844 -3.597656 L 3.820312 -3.597656 L 3.820312 -3.777344 L 1.339844 -3.777344 L 1.339844 -6.886719 Z M 4.125 -6.886719 "/></g></g></g><g fill="#b2812e" fill-opacity="1"><g transform="translate(261.212424, 248.45364)"><g><path d="M 5.5 0.0117188 L 2.851562 -3.324219 C 3.6875 -3.4375 4.949219 -3.84375 4.949219 -5.296875 C 4.949219 -6.855469 3.257812 -7.066406 2.683594 -7.066406 C 2.128906 -7.066406 0.542969 -7.066406 0.542969 -7.066406 L 0.542969 0.0117188 L 1.339844 0.0117188 L 1.339844 -3.28125 L 1.859375 -3.28125 L 4.476562 0.0117188 Z M 1.339844 -6.886719 L 2.253906 -6.886719 C 3.402344 -6.886719 4.09375 -6.414062 4.09375 -5.175781 C 4.09375 -3.910156 3.28125 -3.460938 1.960938 -3.460938 L 1.339844 -3.460938 Z M 1.339844 -6.886719 "/></g></g></g><g clip-path="url(#53bc6b67a3)"><path fill="#b2812e" d="M 187.910156 157.402344 L 193.589844 143.621094 L 188.53125 136.425781 L 183.917969 147.667969 Z M 205.164062 167.964844 L 200.105469 160.796875 L 194.734375 174.027344 L 198.726562 183.757812 Z M 193.289062 170.507812 L 199.011719 156.484375 L 193.980469 149.191406 L 189.285156 160.75 L 193.289062 170.507812 " fill-opacity="1" fill-rule="nonzero"/></g><g clip-path="url(#f2c1c9f914)"><path fill="#c89132" d="M 166.25 156.484375 L 178.898438 187.472656 L 186.832031 187.472656 L 171.28125 149.191406 L 166.25 156.484375 " fill-opacity="1" fill-rule="nonzero"/></g><g clip-path="url(#cccd92af9d)"><path fill="#c89132" d="M 160.101562 167.964844 L 167.046875 185 L 149.953125 187.472656 L 175.988281 187.472656 L 165.160156 160.796875 L 160.101562 167.964844 " fill-opacity="1" fill-rule="nonzero"/></g><g clip-path="url(#e322e63394)"><path fill="#c89132" d="M 196.535156 184.691406 L 176.734375 136.425781 L 171.675781 143.621094 L 189.742188 187.472656 L 215.777344 187.472656 L 196.535156 184.691406 " fill-opacity="1" fill-rule="nonzero"/></g></svg>