<svg xmlns="http://www.w3.org/2000/svg" xmlns:xlink="http://www.w3.org/1999/xlink" width="400" zoomAndPan="magnify" viewBox="0 0 300 113.999999" height="152" preserveAspectRatio="xMidYMid meet" version="1.0"><defs><g/><clipPath id="0c20dc4536"><path d="M 146 1.535156 L 168 1.535156 L 168 49 L 146 49 Z M 146 1.535156 " clip-rule="nonzero"/></clipPath><clipPath id="2fb068ccd5"><path d="M 128 14 L 150 14 L 150 52.535156 L 128 52.535156 Z M 128 14 " clip-rule="nonzero"/></clipPath><clipPath id="98dfcf2499"><path d="M 112.449219 25 L 139 25 L 139 52.535156 L 112.449219 52.535156 Z M 112.449219 25 " clip-rule="nonzero"/></clipPath><clipPath id="2a4f7da9b9"><path d="M 134 1.535156 L 178.449219 1.535156 L 178.449219 52.535156 L 134 52.535156 Z M 134 1.535156 " clip-rule="nonzero"/></clipPath></defs><rect x="-30" width="360" fill="#ffffff" y="-11.4" height="136.799998" fill-opacity="1"/><rect x="-30" width="360" fill="#ffffff" y="-11.4" height="136.799998" fill-opacity="1"/><g fill="#b2812e" fill-opacity="1"><g transform="translate(56.290344, 91.655486)"><g><path d="M 7.585938 -19.980469 C 6.023438 -19.980469 1.53125 -19.980469 1.53125 -19.980469 L 1.53125 0.03125 L 3.792969 0.03125 L 3.792969 -9.273438 L 6.085938 -9.273438 C 7.042969 -9.273438 13.988281 -9.242188 13.988281 -14.976562 C 13.988281 -19.375 9.210938 -19.980469 7.585938 -19.980469 Z M 5.546875 -9.785156 L 3.792969 -9.785156 L 3.792969 -19.472656 L 6.375 -19.472656 C 9.625 -19.472656 11.566406 -18.132812 11.566406 -14.628906 C 11.566406 -11.058594 9.273438 -9.785156 5.546875 -9.785156 Z M 5.546875 -9.785156 "/></g></g></g><g fill="#b2812e" fill-opacity="1"><g transform="translate(76.652287, 91.655486)"><g><path d="M 15.550781 0.03125 L 8.0625 -9.402344 C 10.421875 -9.71875 13.988281 -10.867188 13.988281 -14.976562 C 13.988281 -19.375 9.210938 -19.980469 7.585938 -19.980469 C 6.023438 -19.980469 1.53125 -19.980469 1.53125 -19.980469 L 1.53125 0.03125 L 3.792969 0.03125 L 3.792969 -9.273438 L 5.257812 -9.273438 L 12.652344 0.03125 Z M 3.792969 -19.472656 L 6.375 -19.472656 C 9.625 -19.472656 11.566406 -18.132812 11.566406 -14.628906 C 11.566406 -11.058594 9.273438 -9.785156 5.546875 -9.785156 L 3.792969 -9.785156 Z M 3.792969 -19.472656 "/></g></g></g><g fill="#b2812e" fill-opacity="1"><g transform="translate(98.320629, 91.655486)"><g><path d="M 12.238281 -20.363281 C 6.5 -20.363281 1.273438 -17.304688 1.273438 -9.910156 C 1.273438 -1.402344 8.222656 0.605469 12.238281 0.605469 C 16.21875 0.605469 23.199219 -1.402344 23.199219 -9.910156 C 23.199219 -17.304688 17.941406 -20.363281 12.238281 -20.363281 Z M 12.238281 0.0625 C 8.636719 0.0625 3.601562 -1.53125 3.601562 -9.910156 C 3.601562 -18.164062 9.144531 -19.851562 12.238281 -19.851562 C 15.328125 -19.851562 20.875 -18.164062 20.875 -9.910156 C 20.875 -1.53125 15.804688 0.0625 12.238281 0.0625 Z M 12.238281 0.0625 "/></g></g></g><g fill="#b2812e" fill-opacity="1"><g transform="translate(128.018498, 91.655486)"><g><path d="M 7.585938 -19.980469 C 6.023438 -19.980469 1.53125 -19.980469 1.53125 -19.980469 L 1.53125 0.03125 L 3.792969 0.03125 L 3.792969 -9.273438 L 6.085938 -9.273438 C 7.042969 -9.273438 13.988281 -9.242188 13.988281 -14.976562 C 13.988281 -19.375 9.210938 -19.980469 7.585938 -19.980469 Z M 5.546875 -9.785156 L 3.792969 -9.785156 L 3.792969 -19.472656 L 6.375 -19.472656 C 9.625 -19.472656 11.566406 -18.132812 11.566406 -14.628906 C 11.566406 -11.058594 9.273438 -9.785156 5.546875 -9.785156 Z M 5.546875 -9.785156 "/></g></g></g><g fill="#b2812e" fill-opacity="1"><g transform="translate(148.380442, 91.655486)"><g><path d="M 18.070312 -1.785156 C 18.070312 -1.785156 15.933594 0.0625 12.238281 0.0625 C 8.667969 0.0625 3.601562 -1.53125 3.601562 -9.910156 C 3.601562 -18.164062 9.144531 -19.851562 12.238281 -19.851562 C 15.996094 -19.851562 18.070312 -18.355469 18.070312 -18.355469 L 18.070312 -19.058594 C 18.070312 -19.058594 15.871094 -20.363281 12.238281 -20.363281 C 6.5 -20.363281 1.273438 -17.304688 1.273438 -9.910156 C 1.273438 -1.402344 7.933594 0.605469 11.949219 0.605469 C 15.933594 0.605469 18.070312 -1.082031 18.070312 -1.082031 Z M 18.070312 -1.785156 "/></g></g></g><g fill="#b2812e" fill-opacity="1"><g transform="translate(172.85275, 91.655486)"><g><path d="M 12.238281 -20.363281 C 6.5 -20.363281 1.273438 -17.304688 1.273438 -9.910156 C 1.273438 -1.402344 8.222656 0.605469 12.238281 0.605469 C 16.21875 0.605469 23.199219 -1.402344 23.199219 -9.910156 C 23.199219 -17.304688 17.941406 -20.363281 12.238281 -20.363281 Z M 12.238281 0.0625 C 8.636719 0.0625 3.601562 -1.53125 3.601562 -9.910156 C 3.601562 -18.164062 9.144531 -19.851562 12.238281 -19.851562 C 15.328125 -19.851562 20.875 -18.164062 20.875 -9.910156 C 20.875 -1.53125 15.804688 0.0625 12.238281 0.0625 Z M 12.238281 0.0625 "/></g></g></g><g fill="#b2812e" fill-opacity="1"><g transform="translate(202.550624, 91.655486)"><g><path d="M 15.550781 0.03125 L 8.0625 -9.402344 C 10.421875 -9.71875 13.988281 -10.867188 13.988281 -14.976562 C 13.988281 -19.375 9.210938 -19.980469 7.585938 -19.980469 C 6.023438 -19.980469 1.53125 -19.980469 1.53125 -19.980469 L 1.53125 0.03125 L 3.792969 0.03125 L 3.792969 -9.273438 L 5.257812 -9.273438 L 12.652344 0.03125 Z M 3.792969 -19.472656 L 6.375 -19.472656 C 9.625 -19.472656 11.566406 -18.132812 11.566406 -14.628906 C 11.566406 -11.058594 9.273438 -9.785156 5.546875 -9.785156 L 3.792969 -9.785156 Z M 3.792969 -19.472656 "/></g></g></g><g fill="#b2812e" fill-opacity="1"><g transform="translate(224.21897, 91.655486)"><g><path d="M 17.78125 -19.980469 L 17.273438 -19.980469 L 17.273438 -3.027344 L 1.59375 -20.363281 L 1.53125 -20.363281 L 1.53125 0.03125 L 2.039062 0.03125 L 2.039062 -16.730469 L 17.6875 0.605469 L 17.78125 0.605469 Z M 17.78125 -19.980469 "/></g></g></g><g fill="#b2812e" fill-opacity="1"><g transform="translate(65.745863, 108.340791)"><g><path d="M 2.683594 -7.066406 C 2.128906 -7.066406 0.542969 -7.066406 0.542969 -7.066406 L 0.542969 0.0117188 L 1.339844 0.0117188 L 1.339844 -3.28125 L 2.152344 -3.28125 C 2.492188 -3.28125 4.949219 -3.269531 4.949219 -5.296875 C 4.949219 -6.855469 3.257812 -7.066406 2.683594 -7.066406 Z M 1.960938 -3.460938 L 1.339844 -3.460938 L 1.339844 -6.886719 L 2.253906 -6.886719 C 3.402344 -6.886719 4.09375 -6.414062 4.09375 -5.175781 C 4.09375 -3.910156 3.28125 -3.460938 1.960938 -3.460938 Z M 1.960938 -3.460938 "/></g></g></g><g fill="#b2812e" fill-opacity="1"><g transform="translate(76.800377, 108.340791)"><g><path d="M 5.5 0.0117188 L 2.851562 -3.324219 C 3.6875 -3.4375 4.949219 -3.84375 4.949219 -5.296875 C 4.949219 -6.855469 3.257812 -7.066406 2.683594 -7.066406 C 2.128906 -7.066406 0.542969 -7.066406 0.542969 -7.066406 L 0.542969 0.0117188 L 1.339844 0.0117188 L 1.339844 -3.28125 L 1.859375 -3.28125 L 4.476562 0.0117188 Z M 1.339844 -6.886719 L 2.253906 -6.886719 C 3.402344 -6.886719 4.09375 -6.414062 4.09375 -5.175781 C 4.09375 -3.910156 3.28125 -3.460938 1.960938 -3.460938 L 1.339844 -3.460938 Z M 1.339844 -6.886719 "/></g></g></g><g fill="#b2812e" fill-opacity="1"><g transform="translate(88.316626, 108.340791)"><g><path d="M 4.328125 -7.203125 C 2.300781 -7.203125 0.449219 -6.121094 0.449219 -3.503906 C 0.449219 -0.496094 2.910156 0.214844 4.328125 0.214844 C 5.738281 0.214844 8.207031 -0.496094 8.207031 -3.503906 C 8.207031 -6.121094 6.347656 -7.203125 4.328125 -7.203125 Z M 4.328125 0.0234375 C 3.054688 0.0234375 1.273438 -0.542969 1.273438 -3.503906 C 1.273438 -6.425781 3.234375 -7.023438 4.328125 -7.023438 C 5.421875 -7.023438 7.382812 -6.425781 7.382812 -3.503906 C 7.382812 -0.542969 5.589844 0.0234375 4.328125 0.0234375 Z M 4.328125 0.0234375 "/></g></g></g><g fill="#b2812e" fill-opacity="1"><g transform="translate(102.670815, 108.340791)"><g><path d="M 2.683594 -7.066406 C 2.128906 -7.066406 0.542969 -7.066406 0.542969 -7.066406 L 0.542969 0.0117188 L 1.339844 0.0117188 L 1.339844 -3.28125 L 2.152344 -3.28125 C 2.492188 -3.28125 4.949219 -3.269531 4.949219 -5.296875 C 4.949219 -6.855469 3.257812 -7.066406 2.683594 -7.066406 Z M 1.960938 -3.460938 L 1.339844 -3.460938 L 1.339844 -6.886719 L 2.253906 -6.886719 C 3.402344 -6.886719 4.09375 -6.414062 4.09375 -5.175781 C 4.09375 -3.910156 3.28125 -3.460938 1.960938 -3.460938 Z M 1.960938 -3.460938 "/></g></g></g><g fill="#b2812e" fill-opacity="1"><g transform="translate(113.72533, 108.340791)"><g><path d="M 4.125 -6.886719 L 4.125 -7.066406 L 0.542969 -7.066406 L 0.542969 0.0117188 L 4.125 0.0117188 L 4.125 -0.167969 L 1.339844 -0.167969 L 1.339844 -3.597656 L 3.820312 -3.597656 L 3.820312 -3.777344 L 1.339844 -3.777344 L 1.339844 -6.886719 Z M 4.125 -6.886719 "/></g></g></g><g fill="#b2812e" fill-opacity="1"><g transform="translate(123.969004, 108.340791)"><g><path d="M 5.5 0.0117188 L 2.851562 -3.324219 C 3.6875 -3.4375 4.949219 -3.84375 4.949219 -5.296875 C 4.949219 -6.855469 3.257812 -7.066406 2.683594 -7.066406 C 2.128906 -7.066406 0.542969 -7.066406 0.542969 -7.066406 L 0.542969 0.0117188 L 1.339844 0.0117188 L 1.339844 -3.28125 L 1.859375 -3.28125 L 4.476562 0.0117188 Z M 1.339844 -6.886719 L 2.253906 -6.886719 C 3.402344 -6.886719 4.09375 -6.414062 4.09375 -5.175781 C 4.09375 -3.910156 3.28125 -3.460938 1.960938 -3.460938 L 1.339844 -3.460938 Z M 1.339844 -6.886719 "/></g></g></g><g fill="#b2812e" fill-opacity="1"><g transform="translate(135.48525, 108.340791)"><g><path d="M 5.535156 -7.066406 L 0.371094 -7.066406 L 0.371094 -6.886719 L 2.546875 -6.886719 L 2.546875 0.0117188 L 3.359375 0.0117188 L 3.359375 -6.886719 L 5.535156 -6.886719 Z M 5.535156 -7.066406 "/></g></g></g><g fill="#b2812e" fill-opacity="1"><g transform="translate(147.035279, 108.340791)"><g><path d="M 5.488281 -7.066406 L 3.347656 -3.472656 L 1.285156 -7.066406 L 0.359375 -7.066406 L 2.636719 -3.078125 L 2.636719 0.0117188 L 3.449219 0.0117188 L 3.449219 -3.292969 L 5.714844 -7.066406 Z M 5.488281 -7.066406 "/></g></g></g><g fill="#b2812e" fill-opacity="1"><g transform="translate(158.754235, 108.340791)"><g/></g></g><g fill="#b2812e" fill-opacity="1"><g transform="translate(167.207298, 108.340791)"><g><path d="M 6.390625 -0.632812 C 6.390625 -0.632812 5.636719 0.0234375 4.328125 0.0234375 C 3.066406 0.0234375 1.273438 -0.542969 1.273438 -3.503906 C 1.273438 -6.425781 3.234375 -7.023438 4.328125 -7.023438 C 5.660156 -7.023438 6.390625 -6.492188 6.390625 -6.492188 L 6.390625 -6.742188 C 6.390625 -6.742188 5.613281 -7.203125 4.328125 -7.203125 C 2.300781 -7.203125 0.449219 -6.121094 0.449219 -3.503906 C 0.449219 -0.496094 2.808594 0.214844 4.226562 0.214844 C 5.636719 0.214844 6.390625 -0.382812 6.390625 -0.382812 Z M 6.390625 -0.632812 "/></g></g></g><g fill="#b2812e" fill-opacity="1"><g transform="translate(179.714569, 108.340791)"><g><path d="M 4.328125 -7.203125 C 2.300781 -7.203125 0.449219 -6.121094 0.449219 -3.503906 C 0.449219 -0.496094 2.910156 0.214844 4.328125 0.214844 C 5.738281 0.214844 8.207031 -0.496094 8.207031 -3.503906 C 8.207031 -6.121094 6.347656 -7.203125 4.328125 -7.203125 Z M 4.328125 0.0234375 C 3.054688 0.0234375 1.273438 -0.542969 1.273438 -3.503906 C 1.273438 -6.425781 3.234375 -7.023438 4.328125 -7.023438 C 5.421875 -7.023438 7.382812 -6.425781 7.382812 -3.503906 C 7.382812 -0.542969 5.589844 0.0234375 4.328125 0.0234375 Z M 4.328125 0.0234375 "/></g></g></g><g fill="#b2812e" fill-opacity="1"><g transform="translate(194.068755, 108.340791)"><g><path d="M 5.5 0.0117188 L 2.851562 -3.324219 C 3.6875 -3.4375 4.949219 -3.84375 4.949219 -5.296875 C 4.949219 -6.855469 3.257812 -7.066406 2.683594 -7.066406 C 2.128906 -7.066406 0.542969 -7.066406 0.542969 -7.066406 L 0.542969 0.0117188 L 1.339844 0.0117188 L 1.339844 -3.28125 L 1.859375 -3.28125 L 4.476562 0.0117188 Z M 1.339844 -6.886719 L 2.253906 -6.886719 C 3.402344 -6.886719 4.09375 -6.414062 4.09375 -5.175781 C 4.09375 -3.910156 3.28125 -3.460938 1.960938 -3.460938 L 1.339844 -3.460938 Z M 1.339844 -6.886719 "/></g></g></g><g fill="#b2812e" fill-opacity="1"><g transform="translate(205.585001, 108.340791)"><g><path d="M 6.289062 -7.066406 L 6.109375 -7.066406 L 6.109375 -1.070312 L 0.5625 -7.203125 L 0.542969 -7.203125 L 0.542969 0.0117188 L 0.722656 0.0117188 L 0.722656 -5.917969 L 6.257812 0.214844 L 6.289062 0.214844 Z M 6.289062 -7.066406 "/></g></g></g><g fill="#b2812e" fill-opacity="1"><g transform="translate(218.103532, 108.340791)"><g><path d="M 4.125 -6.886719 L 4.125 -7.066406 L 0.542969 -7.066406 L 0.542969 0.0117188 L 4.125 0.0117188 L 4.125 -0.167969 L 1.339844 -0.167969 L 1.339844 -3.597656 L 3.820312 -3.597656 L 3.820312 -3.777344 L 1.339844 -3.777344 L 1.339844 -6.886719 Z M 4.125 -6.886719 "/></g></g></g><g fill="#b2812e" fill-opacity="1"><g transform="translate(228.347207, 108.340791)"><g><path d="M 5.5 0.0117188 L 2.851562 -3.324219 C 3.6875 -3.4375 4.949219 -3.84375 4.949219 -5.296875 C 4.949219 -6.855469 3.257812 -7.066406 2.683594 -7.066406 C 2.128906 -7.066406 0.542969 -7.066406 0.542969 -7.066406 L 0.542969 0.0117188 L 1.339844 0.0117188 L 1.339844 -3.28125 L 1.859375 -3.28125 L 4.476562 0.0117188 Z M 1.339844 -6.886719 L 2.253906 -6.886719 C 3.402344 -6.886719 4.09375 -6.414062 4.09375 -5.175781 C 4.09375 -3.910156 3.28125 -3.460938 1.960938 -3.460938 L 1.339844 -3.460938 Z M 1.339844 -6.886719 "/></g></g></g><g clip-path="url(#0c20dc4536)"><path fill="#b2812e" d="M 150.410156 22.539062 L 156.089844 8.757812 L 151.03125 1.566406 L 146.417969 12.804688 Z M 167.664062 33.105469 L 162.605469 25.933594 L 157.234375 39.164062 L 161.226562 48.894531 Z M 155.789062 35.644531 L 161.511719 21.621094 L 156.480469 14.328125 L 151.785156 25.890625 L 155.789062 35.644531 " fill-opacity="1" fill-rule="nonzero"/></g><g clip-path="url(#2fb068ccd5)"><path fill="#c89132" d="M 128.75 21.621094 L 141.398438 52.609375 L 149.332031 52.609375 L 133.78125 14.328125 L 128.75 21.621094 " fill-opacity="1" fill-rule="nonzero"/></g><g clip-path="url(#98dfcf2499)"><path fill="#c89132" d="M 122.601562 33.105469 L 129.546875 50.136719 L 112.453125 52.609375 L 138.488281 52.609375 L 127.660156 25.933594 L 122.601562 33.105469 " fill-opacity="1" fill-rule="nonzero"/></g><g clip-path="url(#2a4f7da9b9)"><path fill="#c89132" d="M 159.035156 49.828125 L 139.234375 1.566406 L 134.175781 8.757812 L 152.242188 52.609375 L 178.277344 52.609375 L 159.035156 49.828125 " fill-opacity="1" fill-rule="nonzero"/></g></svg>